<?xml version="1.0" encoding="utf-8" standalone="no"?>
<!DOCTYPE svg PUBLIC "-//W3C//DTD SVG 1.1//EN"
  "http://www.w3.org/Graphics/SVG/1.1/DTD/svg11.dtd">
<!-- Created with matplotlib (https://matplotlib.org/) -->
<svg height="288pt" version="1.1" viewBox="0 0 432 288" width="432pt" xmlns="http://www.w3.org/2000/svg" xmlns:xlink="http://www.w3.org/1999/xlink">
 <metadata>
  <rdf:RDF xmlns:cc="http://creativecommons.org/ns#" xmlns:dc="http://purl.org/dc/elements/1.1/" xmlns:rdf="http://www.w3.org/1999/02/22-rdf-syntax-ns#">
   <cc:Work>
    <dc:type rdf:resource="http://purl.org/dc/dcmitype/StillImage"/>
    <dc:date>2022-11-15T19:23:54.224967</dc:date>
    <dc:format>image/svg+xml</dc:format>
    <dc:creator>
     <cc:Agent>
      <dc:title>Matplotlib v3.3.4, https://matplotlib.org/</dc:title>
     </cc:Agent>
    </dc:creator>
   </cc:Work>
  </rdf:RDF>
 </metadata>
 <defs>
  <style type="text/css">*{stroke-linecap:butt;stroke-linejoin:round;}</style>
 </defs>
 <g id="figure_1">
  <g id="patch_1">
   <path d="M 0 288 
L 432 288 
L 432 0 
L 0 0 
z
" style="fill:none;"/>
  </g>
  <g id="axes_1">
   <g id="patch_2">
    <path d="M 54 252 
L 388.8 252 
L 388.8 34.56 
L 54 34.56 
z
" style="fill:#ffffff;"/>
   </g>
   <g id="PathCollection_1">
    <defs>
     <path d="M 0 2.236068 
C 0.593012 2.236068 1.161816 2.000462 1.581139 1.581139 
C 2.000462 1.161816 2.236068 0.593012 2.236068 0 
C 2.236068 -0.593012 2.000462 -1.161816 1.581139 -1.581139 
C 1.161816 -2.000462 0.593012 -2.236068 0 -2.236068 
C -0.593012 -2.236068 -1.161816 -2.000462 -1.581139 -1.581139 
C -2.000462 -1.161816 -2.236068 -0.593012 -2.236068 0 
C -2.236068 0.593012 -2.000462 1.161816 -1.581139 1.581139 
C -1.161816 2.000462 -0.593012 2.236068 0 2.236068 
z
" id="madfcd609da" style="stroke:#1f77b4;"/>
    </defs>
    <g clip-path="url(#p3358a4d3f0)">
     <use style="fill:#1f77b4;stroke:#1f77b4;" x="70.992744" xlink:href="#madfcd609da" y="165.566026"/>
     <use style="fill:#1f77b4;stroke:#1f77b4;" x="87.886953" xlink:href="#madfcd609da" y="77.139868"/>
     <use style="fill:#1f77b4;stroke:#1f77b4;" x="92.20617" xlink:href="#madfcd609da" y="101.088143"/>
     <use style="fill:#1f77b4;stroke:#1f77b4;" x="79.521163" xlink:href="#madfcd609da" y="209.598475"/>
     <use style="fill:#1f77b4;stroke:#1f77b4;" x="128.749704" xlink:href="#madfcd609da" y="80.13969"/>
     <use style="fill:#1f77b4;stroke:#1f77b4;" x="118.384542" xlink:href="#madfcd609da" y="78.868424"/>
     <use style="fill:#1f77b4;stroke:#1f77b4;" x="77.933145" xlink:href="#madfcd609da" y="89.514134"/>
     <use style="fill:#1f77b4;stroke:#1f77b4;" x="207.686608" xlink:href="#madfcd609da" y="50.937154"/>
     <use style="fill:#1f77b4;stroke:#1f77b4;" x="220.921681" xlink:href="#madfcd609da" y="58.253793"/>
     <use style="fill:#1f77b4;stroke:#1f77b4;" x="79.9373" xlink:href="#madfcd609da" y="110.746106"/>
     <use style="fill:#1f77b4;stroke:#1f77b4;" x="176.533723" xlink:href="#madfcd609da" y="85.508274"/>
     <use style="fill:#1f77b4;stroke:#1f77b4;" x="173.123312" xlink:href="#madfcd609da" y="75.781717"/>
     <use style="fill:#1f77b4;stroke:#1f77b4;" x="72.963416" xlink:href="#madfcd609da" y="117.797517"/>
     <use style="fill:#1f77b4;stroke:#1f77b4;" x="139.483171" xlink:href="#madfcd609da" y="82.087745"/>
     <use style="fill:#1f77b4;stroke:#1f77b4;" x="96.214479" xlink:href="#madfcd609da" y="100.964674"/>
     <use style="fill:#1f77b4;stroke:#1f77b4;" x="211.030055" xlink:href="#madfcd609da" y="60.174411"/>
     <use style="fill:#1f77b4;stroke:#1f77b4;" x="99.127438" xlink:href="#madfcd609da" y="94.402564"/>
     <use style="fill:#1f77b4;stroke:#1f77b4;" x="74.073115" xlink:href="#madfcd609da" y="163.746012"/>
     <use style="fill:#1f77b4;stroke:#1f77b4;" x="81.797959" xlink:href="#madfcd609da" y="140.671161"/>
     <use style="fill:#1f77b4;stroke:#1f77b4;" x="84.055622" xlink:href="#madfcd609da" y="128.38378"/>
     <use style="fill:#1f77b4;stroke:#1f77b4;" x="95.243492" xlink:href="#madfcd609da" y="74.02115"/>
     <use style="fill:#1f77b4;stroke:#1f77b4;" x="116.165144" xlink:href="#madfcd609da" y="185.211202"/>
     <use style="fill:#1f77b4;stroke:#1f77b4;" x="106.354831" xlink:href="#madfcd609da" y="95.152519"/>
     <use style="fill:#1f77b4;stroke:#1f77b4;" x="297.510042" xlink:href="#madfcd609da" y="69.24247"/>
     <use style="fill:#1f77b4;stroke:#1f77b4;" x="100.858951" xlink:href="#madfcd609da" y="89.075136"/>
     <use style="fill:#1f77b4;stroke:#1f77b4;" x="72.60946" xlink:href="#madfcd609da" y="185.110598"/>
     <use style="fill:#1f77b4;stroke:#1f77b4;" x="69.940443" xlink:href="#madfcd609da" y="195.802037"/>
     <use style="fill:#1f77b4;stroke:#1f77b4;" x="72.51858" xlink:href="#madfcd609da" y="132.792055"/>
     <use style="fill:#1f77b4;stroke:#1f77b4;" x="76.445575" xlink:href="#madfcd609da" y="178.841153"/>
     <use style="fill:#1f77b4;stroke:#1f77b4;" x="223.026283" xlink:href="#madfcd609da" y="53.315061"/>
     <use style="fill:#1f77b4;stroke:#1f77b4;" x="78.779769" xlink:href="#madfcd609da" y="97.100574"/>
     <use style="fill:#1f77b4;stroke:#1f77b4;" x="71.466279" xlink:href="#madfcd609da" y="216.489835"/>
     <use style="fill:#1f77b4;stroke:#1f77b4;" x="72.685991" xlink:href="#madfcd609da" y="202.858021"/>
     <use style="fill:#1f77b4;stroke:#1f77b4;" x="117.734029" xlink:href="#madfcd609da" y="64.29002"/>
     <use style="fill:#1f77b4;stroke:#1f77b4;" x="84.117804" xlink:href="#madfcd609da" y="86.633207"/>
     <use style="fill:#1f77b4;stroke:#1f77b4;" x="95.320023" xlink:href="#madfcd609da" y="91.654251"/>
     <use style="fill:#1f77b4;stroke:#1f77b4;" x="73.035164" xlink:href="#madfcd609da" y="151.67813"/>
     <use style="fill:#1f77b4;stroke:#1f77b4;" x="69.218182" xlink:href="#madfcd609da" y="204.325922"/>
     <use style="fill:#1f77b4;stroke:#1f77b4;" x="84.194334" xlink:href="#madfcd609da" y="177.167472"/>
     <use style="fill:#1f77b4;stroke:#1f77b4;" x="104.518088" xlink:href="#madfcd609da" y="61.038689"/>
     <use style="fill:#1f77b4;stroke:#1f77b4;" x="76.172933" xlink:href="#madfcd609da" y="204.13386"/>
     <use style="fill:#1f77b4;stroke:#1f77b4;" x="118.437157" xlink:href="#madfcd609da" y="74.405274"/>
     <use style="fill:#1f77b4;stroke:#1f77b4;" x="97.070669" xlink:href="#madfcd609da" y="65.780785"/>
     <use style="fill:#1f77b4;stroke:#1f77b4;" x="176.97856" xlink:href="#madfcd609da" y="59.712548"/>
     <use style="fill:#1f77b4;stroke:#1f77b4;" x="148.289015" xlink:href="#madfcd609da" y="73.252903"/>
     <use style="fill:#1f77b4;stroke:#1f77b4;" x="219.950695" xlink:href="#madfcd609da" y="64.793039"/>
     <use style="fill:#1f77b4;stroke:#1f77b4;" x="76.880844" xlink:href="#madfcd609da" y="155.688563"/>
     <use style="fill:#1f77b4;stroke:#1f77b4;" x="88.628347" xlink:href="#madfcd609da" y="93.817232"/>
     <use style="fill:#1f77b4;stroke:#1f77b4;" x="94.683859" xlink:href="#madfcd609da" y="81.013114"/>
     <use style="fill:#1f77b4;stroke:#1f77b4;" x="89.962856" xlink:href="#madfcd609da" y="102.601772"/>
     <use style="fill:#1f77b4;stroke:#1f77b4;" x="93.368484" xlink:href="#madfcd609da" y="97.649322"/>
     <use style="fill:#1f77b4;stroke:#1f77b4;" x="92.885382" xlink:href="#madfcd609da" y="198.216528"/>
     <use style="fill:#1f77b4;stroke:#1f77b4;" x="71.365832" xlink:href="#madfcd609da" y="159.767589"/>
     <use style="fill:#1f77b4;stroke:#1f77b4;" x="121.603625" xlink:href="#madfcd609da" y="92.687726"/>
     <use style="fill:#1f77b4;stroke:#1f77b4;" x="70.270483" xlink:href="#madfcd609da" y="177.537877"/>
     <use style="fill:#1f77b4;stroke:#1f77b4;" x="86.265454" xlink:href="#madfcd609da" y="107.535931"/>
     <use style="fill:#1f77b4;stroke:#1f77b4;" x="197.785415" xlink:href="#madfcd609da" y="60.860346"/>
     <use style="fill:#1f77b4;stroke:#1f77b4;" x="204.792781" xlink:href="#madfcd609da" y="54.138183"/>
     <use style="fill:#1f77b4;stroke:#1f77b4;" x="128.874067" xlink:href="#madfcd609da" y="143.245703"/>
     <use style="fill:#1f77b4;stroke:#1f77b4;" x="71.10754" xlink:href="#madfcd609da" y="164.413655"/>
     <use style="fill:#1f77b4;stroke:#1f77b4;" x="78.975879" xlink:href="#madfcd609da" y="87.936484"/>
     <use style="fill:#1f77b4;stroke:#1f77b4;" x="210.006453" xlink:href="#madfcd609da" y="59.116815"/>
     <use style="fill:#1f77b4;stroke:#1f77b4;" x="72.92515" xlink:href="#madfcd609da" y="155.812031"/>
     <use style="fill:#1f77b4;stroke:#1f77b4;" x="166.713844" xlink:href="#madfcd609da" y="57.316348"/>
     <use style="fill:#1f77b4;stroke:#1f77b4;" x="226.642371" xlink:href="#madfcd609da" y="109.927557"/>
     <use style="fill:#1f77b4;stroke:#1f77b4;" x="109.219959" xlink:href="#madfcd609da" y="94.786687"/>
     <use style="fill:#1f77b4;stroke:#1f77b4;" x="91.182568" xlink:href="#madfcd609da" y="106.552758"/>
     <use style="fill:#1f77b4;stroke:#1f77b4;" x="72.155057" xlink:href="#madfcd609da" y="182.055901"/>
     <use style="fill:#1f77b4;stroke:#1f77b4;" x="70.844465" xlink:href="#madfcd609da" y="181.09102"/>
     <use style="fill:#1f77b4;stroke:#1f77b4;" x="82.845476" xlink:href="#madfcd609da" y="127.030202"/>
     <use style="fill:#1f77b4;stroke:#1f77b4;" x="74.250093" xlink:href="#madfcd609da" y="153.690206"/>
     <use style="fill:#1f77b4;stroke:#1f77b4;" x="82.615883" xlink:href="#madfcd609da" y="94.141908"/>
     <use style="fill:#1f77b4;stroke:#1f77b4;" x="211.183117" xlink:href="#madfcd609da" y="48.966234"/>
     <use style="fill:#1f77b4;stroke:#1f77b4;" x="132.834544" xlink:href="#madfcd609da" y="87.840453"/>
     <use style="fill:#1f77b4;stroke:#1f77b4;" x="216.540284" xlink:href="#madfcd609da" y="51.897463"/>
     <use style="fill:#1f77b4;stroke:#1f77b4;" x="75.704181" xlink:href="#madfcd609da" y="132.339338"/>
     <use style="fill:#1f77b4;stroke:#1f77b4;" x="80.803056" xlink:href="#madfcd609da" y="108.743176"/>
     <use style="fill:#1f77b4;stroke:#1f77b4;" x="108.956884" xlink:href="#madfcd609da" y="98.124904"/>
     <use style="fill:#1f77b4;stroke:#1f77b4;" x="86.719856" xlink:href="#madfcd609da" y="92.481946"/>
     <use style="fill:#1f77b4;stroke:#1f77b4;" x="215.27274" xlink:href="#madfcd609da" y="65.890535"/>
     <use style="fill:#1f77b4;stroke:#1f77b4;" x="177.040741" xlink:href="#madfcd609da" y="56.333175"/>
     <use style="fill:#1f77b4;stroke:#1f77b4;" x="197.7328" xlink:href="#madfcd609da" y="51.851734"/>
     <use style="fill:#1f77b4;stroke:#1f77b4;" x="100.988097" xlink:href="#madfcd609da" y="94.155627"/>
     <use style="fill:#1f77b4;stroke:#1f77b4;" x="204.424476" xlink:href="#madfcd609da" y="44.443636"/>
     <use style="fill:#1f77b4;stroke:#1f77b4;" x="85.347082" xlink:href="#madfcd609da" y="88.462367"/>
     <use style="fill:#1f77b4;stroke:#1f77b4;" x="93.488063" xlink:href="#madfcd609da" y="126.010445"/>
     <use style="fill:#1f77b4;stroke:#1f77b4;" x="74.12573" xlink:href="#madfcd609da" y="174.707252"/>
     <use style="fill:#1f77b4;stroke:#1f77b4;" x="84.567423" xlink:href="#madfcd609da" y="120.847641"/>
     <use style="fill:#1f77b4;stroke:#1f77b4;" x="75.900291" xlink:href="#madfcd609da" y="117.971288"/>
     <use style="fill:#1f77b4;stroke:#1f77b4;" x="149.111723" xlink:href="#madfcd609da" y="68.387338"/>
     <use style="fill:#1f77b4;stroke:#1f77b4;" x="241.915081" xlink:href="#madfcd609da" y="82.019152"/>
     <use style="fill:#1f77b4;stroke:#1f77b4;" x="75.125415" xlink:href="#madfcd609da" y="113.576731"/>
     <use style="fill:#1f77b4;stroke:#1f77b4;" x="75.082367" xlink:href="#madfcd609da" y="134.351414"/>
     <use style="fill:#1f77b4;stroke:#1f77b4;" x="109.19126" xlink:href="#madfcd609da" y="95.614382"/>
     <use style="fill:#1f77b4;stroke:#1f77b4;" x="95.54005" xlink:href="#madfcd609da" y="76.184132"/>
     <use style="fill:#1f77b4;stroke:#1f77b4;" x="73.494349" xlink:href="#madfcd609da" y="200.310916"/>
     <use style="fill:#1f77b4;stroke:#1f77b4;" x="70.303965" xlink:href="#madfcd609da" y="176.719328"/>
     <use style="fill:#1f77b4;stroke:#1f77b4;" x="111.535021" xlink:href="#madfcd609da" y="87.785578"/>
     <use style="fill:#1f77b4;stroke:#1f77b4;" x="113.888348" xlink:href="#madfcd609da" y="86.377125"/>
     <use style="fill:#1f77b4;stroke:#1f77b4;" x="373.581818" xlink:href="#madfcd609da" y="60.585972"/>
     <use style="fill:#1f77b4;stroke:#1f77b4;" x="175.500555" xlink:href="#madfcd609da" y="61.468541"/>
     <use style="fill:#1f77b4;stroke:#1f77b4;" x="101.184208" xlink:href="#madfcd609da" y="81.51156"/>
     <use style="fill:#1f77b4;stroke:#1f77b4;" x="72.733823" xlink:href="#madfcd609da" y="149.002984"/>
     <use style="fill:#1f77b4;stroke:#1f77b4;" x="71.231903" xlink:href="#madfcd609da" y="205.912718"/>
     <use style="fill:#1f77b4;stroke:#1f77b4;" x="116.423436" xlink:href="#madfcd609da" y="83.496198"/>
     <use style="fill:#1f77b4;stroke:#1f77b4;" x="84.242166" xlink:href="#madfcd609da" y="99.643106"/>
     <use style="fill:#1f77b4;stroke:#1f77b4;" x="71.906332" xlink:href="#madfcd609da" y="192.097989"/>
     <use style="fill:#1f77b4;stroke:#1f77b4;" x="164.805354" xlink:href="#madfcd609da" y="62.671214"/>
     <use style="fill:#1f77b4;stroke:#1f77b4;" x="75.187597" xlink:href="#madfcd609da" y="143.314297"/>
     <use style="fill:#1f77b4;stroke:#1f77b4;" x="107.474097" xlink:href="#madfcd609da" y="90.849421"/>
     <use style="fill:#1f77b4;stroke:#1f77b4;" x="119.929511" xlink:href="#madfcd609da" y="76.316746"/>
     <use style="fill:#1f77b4;stroke:#1f77b4;" x="94.272506" xlink:href="#madfcd609da" y="108.692875"/>
     <use style="fill:#1f77b4;stroke:#1f77b4;" x="75.914641" xlink:href="#madfcd609da" y="110.032734"/>
     <use style="fill:#1f77b4;stroke:#1f77b4;" x="77.469176" xlink:href="#madfcd609da" y="128.923382"/>
     <use style="fill:#1f77b4;stroke:#1f77b4;" x="97.405492" xlink:href="#madfcd609da" y="77.482835"/>
     <use style="fill:#1f77b4;stroke:#1f77b4;" x="82.52022" xlink:href="#madfcd609da" y="104.485807"/>
     <use style="fill:#1f77b4;stroke:#1f77b4;" x="70.413978" xlink:href="#madfcd609da" y="199.364326"/>
     <use style="fill:#1f77b4;stroke:#1f77b4;" x="72.767305" xlink:href="#madfcd609da" y="132.59542"/>
     <use style="fill:#1f77b4;stroke:#1f77b4;" x="87.059462" xlink:href="#madfcd609da" y="164.148427"/>
     <use style="fill:#1f77b4;stroke:#1f77b4;" x="72.862969" xlink:href="#madfcd609da" y="132.677732"/>
     <use style="fill:#1f77b4;stroke:#1f77b4;" x="225.666601" xlink:href="#madfcd609da" y="58.665354"/>
     <use style="fill:#1f77b4;stroke:#1f77b4;" x="172.54933" xlink:href="#madfcd609da" y="55.64724"/>
     <use style="fill:#1f77b4;stroke:#1f77b4;" x="79.731623" xlink:href="#madfcd609da" y="97.800228"/>
     <use style="fill:#1f77b4;stroke:#1f77b4;" x="70.58139" xlink:href="#madfcd609da" y="184.63959"/>
     <use style="fill:#1f77b4;stroke:#1f77b4;" x="75.565468" xlink:href="#madfcd609da" y="203.21928"/>
     <use style="fill:#1f77b4;stroke:#1f77b4;" x="274.330727" xlink:href="#madfcd609da" y="56.287446"/>
     <use style="fill:#1f77b4;stroke:#1f77b4;" x="159.677779" xlink:href="#madfcd609da" y="86.564614"/>
     <use style="fill:#1f77b4;stroke:#1f77b4;" x="77.799216" xlink:href="#madfcd609da" y="124.451086"/>
     <use style="fill:#1f77b4;stroke:#1f77b4;" x="103.240978" xlink:href="#madfcd609da" y="73.051696"/>
     <use style="fill:#1f77b4;stroke:#1f77b4;" x="76.531672" xlink:href="#madfcd609da" y="147.795738"/>
     <use style="fill:#1f77b4;stroke:#1f77b4;" x="86.509396" xlink:href="#madfcd609da" y="96.012224"/>
     <use style="fill:#1f77b4;stroke:#1f77b4;" x="95.520917" xlink:href="#madfcd609da" y="94.032159"/>
     <use style="fill:#1f77b4;stroke:#1f77b4;" x="80.248207" xlink:href="#madfcd609da" y="111.09822"/>
     <use style="fill:#1f77b4;stroke:#1f77b4;" x="123.689094" xlink:href="#madfcd609da" y="78.466009"/>
     <use style="fill:#1f77b4;stroke:#1f77b4;" x="161.614969" xlink:href="#madfcd609da" y="65.067413"/>
     <use style="fill:#1f77b4;stroke:#1f77b4;" x="356.697175" xlink:href="#madfcd609da" y="65.799077"/>
     <use style="fill:#1f77b4;stroke:#1f77b4;" x="101.729491" xlink:href="#madfcd609da" y="94.196783"/>
     <use style="fill:#1f77b4;stroke:#1f77b4;" x="108.813388" xlink:href="#madfcd609da" y="117.472842"/>
     <use style="fill:#1f77b4;stroke:#1f77b4;" x="71.188854" xlink:href="#madfcd609da" y="198.584647"/>
     <use style="fill:#1f77b4;stroke:#1f77b4;" x="109.320406" xlink:href="#madfcd609da" y="89.687904"/>
     <use style="fill:#1f77b4;stroke:#1f77b4;" x="96.008802" xlink:href="#madfcd609da" y="93.602306"/>
     <use style="fill:#1f77b4;stroke:#1f77b4;" x="87.384719" xlink:href="#madfcd609da" y="99.345868"/>
     <use style="fill:#1f77b4;stroke:#1f77b4;" x="74.135296" xlink:href="#madfcd609da" y="126.819848"/>
     <use style="fill:#1f77b4;stroke:#1f77b4;" x="163.489978" xlink:href="#madfcd609da" y="85.366514"/>
     <use style="fill:#1f77b4;stroke:#1f77b4;" x="75.048884" xlink:href="#madfcd609da" y="152.057681"/>
     <use style="fill:#1f77b4;stroke:#1f77b4;" x="99.423996" xlink:href="#madfcd609da" y="86.870998"/>
     <use style="fill:#1f77b4;stroke:#1f77b4;" x="140.669401" xlink:href="#madfcd609da" y="88.247441"/>
     <use style="fill:#1f77b4;stroke:#1f77b4;" x="70.294398" xlink:href="#madfcd609da" y="242.116364"/>
     <use style="fill:#1f77b4;stroke:#1f77b4;" x="244.005333" xlink:href="#madfcd609da" y="58.208064"/>
     <use style="fill:#1f77b4;stroke:#1f77b4;" x="128.515328" xlink:href="#madfcd609da" y="81.758496"/>
     <use style="fill:#1f77b4;stroke:#1f77b4;" x="160.6105" xlink:href="#madfcd609da" y="68.40563"/>
     <use style="fill:#1f77b4;stroke:#1f77b4;" x="76.440791" xlink:href="#madfcd609da" y="129.234339"/>
     <use style="fill:#1f77b4;stroke:#1f77b4;" x="72.035478" xlink:href="#madfcd609da" y="183.679281"/>
     <use style="fill:#1f77b4;stroke:#1f77b4;" x="103.475354" xlink:href="#madfcd609da" y="160.860512"/>
     <use style="fill:#1f77b4;stroke:#1f77b4;" x="76.828229" xlink:href="#madfcd609da" y="191.242857"/>
     <use style="fill:#1f77b4;stroke:#1f77b4;" x="179.795856" xlink:href="#madfcd609da" y="53.635164"/>
     <use style="fill:#1f77b4;stroke:#1f77b4;" x="82.156698" xlink:href="#madfcd609da" y="91.41646"/>
     <use style="fill:#1f77b4;stroke:#1f77b4;" x="76.785181" xlink:href="#madfcd609da" y="151.316871"/>
     <use style="fill:#1f77b4;stroke:#1f77b4;" x="94.975634" xlink:href="#madfcd609da" y="106.173207"/>
     <use style="fill:#1f77b4;stroke:#1f77b4;" x="87.054679" xlink:href="#madfcd609da" y="193.799107"/>
     <use style="fill:#1f77b4;stroke:#1f77b4;" x="204.811914" xlink:href="#madfcd609da" y="51.348715"/>
     <use style="fill:#1f77b4;stroke:#1f77b4;" x="232.296096" xlink:href="#madfcd609da" y="50.66278"/>
     <use style="fill:#1f77b4;stroke:#1f77b4;" x="86.643325" xlink:href="#madfcd609da" y="81.182311"/>
     <use style="fill:#1f77b4;stroke:#1f77b4;" x="180.345922" xlink:href="#madfcd609da" y="68.817191"/>
     <use style="fill:#1f77b4;stroke:#1f77b4;" x="72.60946" xlink:href="#madfcd609da" y="125.74979"/>
     <use style="fill:#1f77b4;stroke:#1f77b4;" x="71.772403" xlink:href="#madfcd609da" y="187.758307"/>
     <use style="fill:#1f77b4;stroke:#1f77b4;" x="94.502098" xlink:href="#madfcd609da" y="92.134405"/>
     <use style="fill:#1f77b4;stroke:#1f77b4;" x="80.941769" xlink:href="#madfcd609da" y="144.507824"/>
     <use style="fill:#1f77b4;stroke:#1f77b4;" x="72.078527" xlink:href="#madfcd609da" y="171.410191"/>
     <use style="fill:#1f77b4;stroke:#1f77b4;" x="91.192134" xlink:href="#madfcd609da" y="92.641997"/>
     <use style="fill:#1f77b4;stroke:#1f77b4;" x="118.025803" xlink:href="#madfcd609da" y="103.054489"/>
     <use style="fill:#1f77b4;stroke:#1f77b4;" x="94.033346" xlink:href="#madfcd609da" y="81.900256"/>
     <use style="fill:#1f77b4;stroke:#1f77b4;" x="100.3615" xlink:href="#madfcd609da" y="96.300317"/>
     <use style="fill:#1f77b4;stroke:#1f77b4;" x="83.553388" xlink:href="#madfcd609da" y="124.12641"/>
     <use style="fill:#1f77b4;stroke:#1f77b4;" x="72.035478" xlink:href="#madfcd609da" y="196.37365"/>
     <use style="fill:#1f77b4;stroke:#1f77b4;" x="85.519277" xlink:href="#madfcd609da" y="106.452154"/>
     <use style="fill:#1f77b4;stroke:#1f77b4;" x="211.374444" xlink:href="#madfcd609da" y="77.309065"/>
     <use style="fill:#1f77b4;stroke:#1f77b4;" x="204.831047" xlink:href="#madfcd609da" y="59.579934"/>
     <use style="fill:#1f77b4;stroke:#1f77b4;" x="257.991366" xlink:href="#madfcd609da" y="65.250329"/>
     <use style="fill:#1f77b4;stroke:#1f77b4;" x="111.310211" xlink:href="#madfcd609da" y="74.501305"/>
     <use style="fill:#1f77b4;stroke:#1f77b4;" x="75.641999" xlink:href="#madfcd609da" y="110.069317"/>
     <use style="fill:#1f77b4;stroke:#1f77b4;" x="85.815834" xlink:href="#madfcd609da" y="108.061814"/>
     <use style="fill:#1f77b4;stroke:#1f77b4;" x="112.94606" xlink:href="#madfcd609da" y="85.224754"/>
     <use style="fill:#1f77b4;stroke:#1f77b4;" x="75.364575" xlink:href="#madfcd609da" y="79.074204"/>
     <use style="fill:#1f77b4;stroke:#1f77b4;" x="104.106734" xlink:href="#madfcd609da" y="92.097822"/>
     <use style="fill:#1f77b4;stroke:#1f77b4;" x="78.425813" xlink:href="#madfcd609da" y="140.22759"/>
     <use style="fill:#1f77b4;stroke:#1f77b4;" x="72.772088" xlink:href="#madfcd609da" y="225.292666"/>
     <use style="fill:#1f77b4;stroke:#1f77b4;" x="71.384965" xlink:href="#madfcd609da" y="215.351183"/>
    </g>
   </g>
   <g id="matplotlib.axis_1">
    <g id="xtick_1">
     <g id="line2d_1">
      <defs>
       <path d="M 0 0 
L 0 3.5 
" id="mcadcf3b394" style="stroke:#000000;stroke-width:0.8;"/>
      </defs>
      <g>
       <use style="stroke:#000000;stroke-width:0.8;" x="67.821492" xlink:href="#mcadcf3b394" y="252"/>
      </g>
     </g>
     <g id="text_1">
      <!-- 0 -->
      <g transform="translate(64.640242 266.598437)scale(0.1 -0.1)">
       <defs>
        <path d="M 31.78125 66.40625 
Q 24.171875 66.40625 20.328125 58.90625 
Q 16.5 51.421875 16.5 36.375 
Q 16.5 21.390625 20.328125 13.890625 
Q 24.171875 6.390625 31.78125 6.390625 
Q 39.453125 6.390625 43.28125 13.890625 
Q 47.125 21.390625 47.125 36.375 
Q 47.125 51.421875 43.28125 58.90625 
Q 39.453125 66.40625 31.78125 66.40625 
z
M 31.78125 74.21875 
Q 44.046875 74.21875 50.515625 64.515625 
Q 56.984375 54.828125 56.984375 36.375 
Q 56.984375 17.96875 50.515625 8.265625 
Q 44.046875 -1.421875 31.78125 -1.421875 
Q 19.53125 -1.421875 13.0625 8.265625 
Q 6.59375 17.96875 6.59375 36.375 
Q 6.59375 54.828125 13.0625 64.515625 
Q 19.53125 74.21875 31.78125 74.21875 
z
" id="DejaVuSans-48"/>
       </defs>
       <use xlink:href="#DejaVuSans-48"/>
      </g>
     </g>
    </g>
    <g id="xtick_2">
     <g id="line2d_2">
      <g>
       <use style="stroke:#000000;stroke-width:0.8;" x="115.653343" xlink:href="#mcadcf3b394" y="252"/>
      </g>
     </g>
     <g id="text_2">
      <!-- 10000 -->
      <g transform="translate(99.747093 266.598437)scale(0.1 -0.1)">
       <defs>
        <path d="M 12.40625 8.296875 
L 28.515625 8.296875 
L 28.515625 63.921875 
L 10.984375 60.40625 
L 10.984375 69.390625 
L 28.421875 72.90625 
L 38.28125 72.90625 
L 38.28125 8.296875 
L 54.390625 8.296875 
L 54.390625 0 
L 12.40625 0 
z
" id="DejaVuSans-49"/>
       </defs>
       <use xlink:href="#DejaVuSans-49"/>
       <use x="63.623047" xlink:href="#DejaVuSans-48"/>
       <use x="127.246094" xlink:href="#DejaVuSans-48"/>
       <use x="190.869141" xlink:href="#DejaVuSans-48"/>
       <use x="254.492188" xlink:href="#DejaVuSans-48"/>
      </g>
     </g>
    </g>
    <g id="xtick_3">
     <g id="line2d_3">
      <g>
       <use style="stroke:#000000;stroke-width:0.8;" x="163.485194" xlink:href="#mcadcf3b394" y="252"/>
      </g>
     </g>
     <g id="text_3">
      <!-- 20000 -->
      <g transform="translate(147.578944 266.598437)scale(0.1 -0.1)">
       <defs>
        <path d="M 19.1875 8.296875 
L 53.609375 8.296875 
L 53.609375 0 
L 7.328125 0 
L 7.328125 8.296875 
Q 12.9375 14.109375 22.625 23.890625 
Q 32.328125 33.6875 34.8125 36.53125 
Q 39.546875 41.84375 41.421875 45.53125 
Q 43.3125 49.21875 43.3125 52.78125 
Q 43.3125 58.59375 39.234375 62.25 
Q 35.15625 65.921875 28.609375 65.921875 
Q 23.96875 65.921875 18.8125 64.3125 
Q 13.671875 62.703125 7.8125 59.421875 
L 7.8125 69.390625 
Q 13.765625 71.78125 18.9375 73 
Q 24.125 74.21875 28.421875 74.21875 
Q 39.75 74.21875 46.484375 68.546875 
Q 53.21875 62.890625 53.21875 53.421875 
Q 53.21875 48.921875 51.53125 44.890625 
Q 49.859375 40.875 45.40625 35.40625 
Q 44.1875 33.984375 37.640625 27.21875 
Q 31.109375 20.453125 19.1875 8.296875 
z
" id="DejaVuSans-50"/>
       </defs>
       <use xlink:href="#DejaVuSans-50"/>
       <use x="63.623047" xlink:href="#DejaVuSans-48"/>
       <use x="127.246094" xlink:href="#DejaVuSans-48"/>
       <use x="190.869141" xlink:href="#DejaVuSans-48"/>
       <use x="254.492188" xlink:href="#DejaVuSans-48"/>
      </g>
     </g>
    </g>
    <g id="xtick_4">
     <g id="line2d_4">
      <g>
       <use style="stroke:#000000;stroke-width:0.8;" x="211.317046" xlink:href="#mcadcf3b394" y="252"/>
      </g>
     </g>
     <g id="text_4">
      <!-- 30000 -->
      <g transform="translate(195.410796 266.598437)scale(0.1 -0.1)">
       <defs>
        <path d="M 40.578125 39.3125 
Q 47.65625 37.796875 51.625 33 
Q 55.609375 28.21875 55.609375 21.1875 
Q 55.609375 10.40625 48.1875 4.484375 
Q 40.765625 -1.421875 27.09375 -1.421875 
Q 22.515625 -1.421875 17.65625 -0.515625 
Q 12.796875 0.390625 7.625 2.203125 
L 7.625 11.71875 
Q 11.71875 9.328125 16.59375 8.109375 
Q 21.484375 6.890625 26.8125 6.890625 
Q 36.078125 6.890625 40.9375 10.546875 
Q 45.796875 14.203125 45.796875 21.1875 
Q 45.796875 27.640625 41.28125 31.265625 
Q 36.765625 34.90625 28.71875 34.90625 
L 20.21875 34.90625 
L 20.21875 43.015625 
L 29.109375 43.015625 
Q 36.375 43.015625 40.234375 45.921875 
Q 44.09375 48.828125 44.09375 54.296875 
Q 44.09375 59.90625 40.109375 62.90625 
Q 36.140625 65.921875 28.71875 65.921875 
Q 24.65625 65.921875 20.015625 65.03125 
Q 15.375 64.15625 9.8125 62.3125 
L 9.8125 71.09375 
Q 15.4375 72.65625 20.34375 73.4375 
Q 25.25 74.21875 29.59375 74.21875 
Q 40.828125 74.21875 47.359375 69.109375 
Q 53.90625 64.015625 53.90625 55.328125 
Q 53.90625 49.265625 50.4375 45.09375 
Q 46.96875 40.921875 40.578125 39.3125 
z
" id="DejaVuSans-51"/>
       </defs>
       <use xlink:href="#DejaVuSans-51"/>
       <use x="63.623047" xlink:href="#DejaVuSans-48"/>
       <use x="127.246094" xlink:href="#DejaVuSans-48"/>
       <use x="190.869141" xlink:href="#DejaVuSans-48"/>
       <use x="254.492188" xlink:href="#DejaVuSans-48"/>
      </g>
     </g>
    </g>
    <g id="xtick_5">
     <g id="line2d_5">
      <g>
       <use style="stroke:#000000;stroke-width:0.8;" x="259.148897" xlink:href="#mcadcf3b394" y="252"/>
      </g>
     </g>
     <g id="text_5">
      <!-- 40000 -->
      <g transform="translate(243.242647 266.598437)scale(0.1 -0.1)">
       <defs>
        <path d="M 37.796875 64.3125 
L 12.890625 25.390625 
L 37.796875 25.390625 
z
M 35.203125 72.90625 
L 47.609375 72.90625 
L 47.609375 25.390625 
L 58.015625 25.390625 
L 58.015625 17.1875 
L 47.609375 17.1875 
L 47.609375 0 
L 37.796875 0 
L 37.796875 17.1875 
L 4.890625 17.1875 
L 4.890625 26.703125 
z
" id="DejaVuSans-52"/>
       </defs>
       <use xlink:href="#DejaVuSans-52"/>
       <use x="63.623047" xlink:href="#DejaVuSans-48"/>
       <use x="127.246094" xlink:href="#DejaVuSans-48"/>
       <use x="190.869141" xlink:href="#DejaVuSans-48"/>
       <use x="254.492188" xlink:href="#DejaVuSans-48"/>
      </g>
     </g>
    </g>
    <g id="xtick_6">
     <g id="line2d_6">
      <g>
       <use style="stroke:#000000;stroke-width:0.8;" x="306.980748" xlink:href="#mcadcf3b394" y="252"/>
      </g>
     </g>
     <g id="text_6">
      <!-- 50000 -->
      <g transform="translate(291.074498 266.598437)scale(0.1 -0.1)">
       <defs>
        <path d="M 10.796875 72.90625 
L 49.515625 72.90625 
L 49.515625 64.59375 
L 19.828125 64.59375 
L 19.828125 46.734375 
Q 21.96875 47.46875 24.109375 47.828125 
Q 26.265625 48.1875 28.421875 48.1875 
Q 40.625 48.1875 47.75 41.5 
Q 54.890625 34.8125 54.890625 23.390625 
Q 54.890625 11.625 47.5625 5.09375 
Q 40.234375 -1.421875 26.90625 -1.421875 
Q 22.3125 -1.421875 17.546875 -0.640625 
Q 12.796875 0.140625 7.71875 1.703125 
L 7.71875 11.625 
Q 12.109375 9.234375 16.796875 8.0625 
Q 21.484375 6.890625 26.703125 6.890625 
Q 35.15625 6.890625 40.078125 11.328125 
Q 45.015625 15.765625 45.015625 23.390625 
Q 45.015625 31 40.078125 35.4375 
Q 35.15625 39.890625 26.703125 39.890625 
Q 22.75 39.890625 18.8125 39.015625 
Q 14.890625 38.140625 10.796875 36.28125 
z
" id="DejaVuSans-53"/>
       </defs>
       <use xlink:href="#DejaVuSans-53"/>
       <use x="63.623047" xlink:href="#DejaVuSans-48"/>
       <use x="127.246094" xlink:href="#DejaVuSans-48"/>
       <use x="190.869141" xlink:href="#DejaVuSans-48"/>
       <use x="254.492188" xlink:href="#DejaVuSans-48"/>
      </g>
     </g>
    </g>
    <g id="xtick_7">
     <g id="line2d_7">
      <g>
       <use style="stroke:#000000;stroke-width:0.8;" x="354.8126" xlink:href="#mcadcf3b394" y="252"/>
      </g>
     </g>
     <g id="text_7">
      <!-- 60000 -->
      <g transform="translate(338.90635 266.598437)scale(0.1 -0.1)">
       <defs>
        <path d="M 33.015625 40.375 
Q 26.375 40.375 22.484375 35.828125 
Q 18.609375 31.296875 18.609375 23.390625 
Q 18.609375 15.53125 22.484375 10.953125 
Q 26.375 6.390625 33.015625 6.390625 
Q 39.65625 6.390625 43.53125 10.953125 
Q 47.40625 15.53125 47.40625 23.390625 
Q 47.40625 31.296875 43.53125 35.828125 
Q 39.65625 40.375 33.015625 40.375 
z
M 52.59375 71.296875 
L 52.59375 62.3125 
Q 48.875 64.0625 45.09375 64.984375 
Q 41.3125 65.921875 37.59375 65.921875 
Q 27.828125 65.921875 22.671875 59.328125 
Q 17.53125 52.734375 16.796875 39.40625 
Q 19.671875 43.65625 24.015625 45.921875 
Q 28.375 48.1875 33.59375 48.1875 
Q 44.578125 48.1875 50.953125 41.515625 
Q 57.328125 34.859375 57.328125 23.390625 
Q 57.328125 12.15625 50.6875 5.359375 
Q 44.046875 -1.421875 33.015625 -1.421875 
Q 20.359375 -1.421875 13.671875 8.265625 
Q 6.984375 17.96875 6.984375 36.375 
Q 6.984375 53.65625 15.1875 63.9375 
Q 23.390625 74.21875 37.203125 74.21875 
Q 40.921875 74.21875 44.703125 73.484375 
Q 48.484375 72.75 52.59375 71.296875 
z
" id="DejaVuSans-54"/>
       </defs>
       <use xlink:href="#DejaVuSans-54"/>
       <use x="63.623047" xlink:href="#DejaVuSans-48"/>
       <use x="127.246094" xlink:href="#DejaVuSans-48"/>
       <use x="190.869141" xlink:href="#DejaVuSans-48"/>
       <use x="254.492188" xlink:href="#DejaVuSans-48"/>
      </g>
     </g>
    </g>
    <g id="text_8">
     <!-- gdp_per_capita -->
     <g transform="translate(183.170312 280.276563)scale(0.1 -0.1)">
      <defs>
       <path d="M 45.40625 27.984375 
Q 45.40625 37.75 41.375 43.109375 
Q 37.359375 48.484375 30.078125 48.484375 
Q 22.859375 48.484375 18.828125 43.109375 
Q 14.796875 37.75 14.796875 27.984375 
Q 14.796875 18.265625 18.828125 12.890625 
Q 22.859375 7.515625 30.078125 7.515625 
Q 37.359375 7.515625 41.375 12.890625 
Q 45.40625 18.265625 45.40625 27.984375 
z
M 54.390625 6.78125 
Q 54.390625 -7.171875 48.1875 -13.984375 
Q 42 -20.796875 29.203125 -20.796875 
Q 24.46875 -20.796875 20.265625 -20.09375 
Q 16.0625 -19.390625 12.109375 -17.921875 
L 12.109375 -9.1875 
Q 16.0625 -11.328125 19.921875 -12.34375 
Q 23.78125 -13.375 27.78125 -13.375 
Q 36.625 -13.375 41.015625 -8.765625 
Q 45.40625 -4.15625 45.40625 5.171875 
L 45.40625 9.625 
Q 42.625 4.78125 38.28125 2.390625 
Q 33.9375 0 27.875 0 
Q 17.828125 0 11.671875 7.65625 
Q 5.515625 15.328125 5.515625 27.984375 
Q 5.515625 40.671875 11.671875 48.328125 
Q 17.828125 56 27.875 56 
Q 33.9375 56 38.28125 53.609375 
Q 42.625 51.21875 45.40625 46.390625 
L 45.40625 54.6875 
L 54.390625 54.6875 
z
" id="DejaVuSans-103"/>
       <path d="M 45.40625 46.390625 
L 45.40625 75.984375 
L 54.390625 75.984375 
L 54.390625 0 
L 45.40625 0 
L 45.40625 8.203125 
Q 42.578125 3.328125 38.25 0.953125 
Q 33.9375 -1.421875 27.875 -1.421875 
Q 17.96875 -1.421875 11.734375 6.484375 
Q 5.515625 14.40625 5.515625 27.296875 
Q 5.515625 40.1875 11.734375 48.09375 
Q 17.96875 56 27.875 56 
Q 33.9375 56 38.25 53.625 
Q 42.578125 51.265625 45.40625 46.390625 
z
M 14.796875 27.296875 
Q 14.796875 17.390625 18.875 11.75 
Q 22.953125 6.109375 30.078125 6.109375 
Q 37.203125 6.109375 41.296875 11.75 
Q 45.40625 17.390625 45.40625 27.296875 
Q 45.40625 37.203125 41.296875 42.84375 
Q 37.203125 48.484375 30.078125 48.484375 
Q 22.953125 48.484375 18.875 42.84375 
Q 14.796875 37.203125 14.796875 27.296875 
z
" id="DejaVuSans-100"/>
       <path d="M 18.109375 8.203125 
L 18.109375 -20.796875 
L 9.078125 -20.796875 
L 9.078125 54.6875 
L 18.109375 54.6875 
L 18.109375 46.390625 
Q 20.953125 51.265625 25.265625 53.625 
Q 29.59375 56 35.59375 56 
Q 45.5625 56 51.78125 48.09375 
Q 58.015625 40.1875 58.015625 27.296875 
Q 58.015625 14.40625 51.78125 6.484375 
Q 45.5625 -1.421875 35.59375 -1.421875 
Q 29.59375 -1.421875 25.265625 0.953125 
Q 20.953125 3.328125 18.109375 8.203125 
z
M 48.6875 27.296875 
Q 48.6875 37.203125 44.609375 42.84375 
Q 40.53125 48.484375 33.40625 48.484375 
Q 26.265625 48.484375 22.1875 42.84375 
Q 18.109375 37.203125 18.109375 27.296875 
Q 18.109375 17.390625 22.1875 11.75 
Q 26.265625 6.109375 33.40625 6.109375 
Q 40.53125 6.109375 44.609375 11.75 
Q 48.6875 17.390625 48.6875 27.296875 
z
" id="DejaVuSans-112"/>
       <path d="M 50.984375 -16.609375 
L 50.984375 -23.578125 
L -0.984375 -23.578125 
L -0.984375 -16.609375 
z
" id="DejaVuSans-95"/>
       <path d="M 56.203125 29.59375 
L 56.203125 25.203125 
L 14.890625 25.203125 
Q 15.484375 15.921875 20.484375 11.0625 
Q 25.484375 6.203125 34.421875 6.203125 
Q 39.59375 6.203125 44.453125 7.46875 
Q 49.3125 8.734375 54.109375 11.28125 
L 54.109375 2.78125 
Q 49.265625 0.734375 44.1875 -0.34375 
Q 39.109375 -1.421875 33.890625 -1.421875 
Q 20.796875 -1.421875 13.15625 6.1875 
Q 5.515625 13.8125 5.515625 26.8125 
Q 5.515625 40.234375 12.765625 48.109375 
Q 20.015625 56 32.328125 56 
Q 43.359375 56 49.78125 48.890625 
Q 56.203125 41.796875 56.203125 29.59375 
z
M 47.21875 32.234375 
Q 47.125 39.59375 43.09375 43.984375 
Q 39.0625 48.390625 32.421875 48.390625 
Q 24.90625 48.390625 20.390625 44.140625 
Q 15.875 39.890625 15.1875 32.171875 
z
" id="DejaVuSans-101"/>
       <path d="M 41.109375 46.296875 
Q 39.59375 47.171875 37.8125 47.578125 
Q 36.03125 48 33.890625 48 
Q 26.265625 48 22.1875 43.046875 
Q 18.109375 38.09375 18.109375 28.8125 
L 18.109375 0 
L 9.078125 0 
L 9.078125 54.6875 
L 18.109375 54.6875 
L 18.109375 46.1875 
Q 20.953125 51.171875 25.484375 53.578125 
Q 30.03125 56 36.53125 56 
Q 37.453125 56 38.578125 55.875 
Q 39.703125 55.765625 41.0625 55.515625 
z
" id="DejaVuSans-114"/>
       <path d="M 48.78125 52.59375 
L 48.78125 44.1875 
Q 44.96875 46.296875 41.140625 47.34375 
Q 37.3125 48.390625 33.40625 48.390625 
Q 24.65625 48.390625 19.8125 42.84375 
Q 14.984375 37.3125 14.984375 27.296875 
Q 14.984375 17.28125 19.8125 11.734375 
Q 24.65625 6.203125 33.40625 6.203125 
Q 37.3125 6.203125 41.140625 7.25 
Q 44.96875 8.296875 48.78125 10.40625 
L 48.78125 2.09375 
Q 45.015625 0.34375 40.984375 -0.53125 
Q 36.96875 -1.421875 32.421875 -1.421875 
Q 20.0625 -1.421875 12.78125 6.34375 
Q 5.515625 14.109375 5.515625 27.296875 
Q 5.515625 40.671875 12.859375 48.328125 
Q 20.21875 56 33.015625 56 
Q 37.15625 56 41.109375 55.140625 
Q 45.0625 54.296875 48.78125 52.59375 
z
" id="DejaVuSans-99"/>
       <path d="M 34.28125 27.484375 
Q 23.390625 27.484375 19.1875 25 
Q 14.984375 22.515625 14.984375 16.5 
Q 14.984375 11.71875 18.140625 8.90625 
Q 21.296875 6.109375 26.703125 6.109375 
Q 34.1875 6.109375 38.703125 11.40625 
Q 43.21875 16.703125 43.21875 25.484375 
L 43.21875 27.484375 
z
M 52.203125 31.203125 
L 52.203125 0 
L 43.21875 0 
L 43.21875 8.296875 
Q 40.140625 3.328125 35.546875 0.953125 
Q 30.953125 -1.421875 24.3125 -1.421875 
Q 15.921875 -1.421875 10.953125 3.296875 
Q 6 8.015625 6 15.921875 
Q 6 25.140625 12.171875 29.828125 
Q 18.359375 34.515625 30.609375 34.515625 
L 43.21875 34.515625 
L 43.21875 35.40625 
Q 43.21875 41.609375 39.140625 45 
Q 35.0625 48.390625 27.6875 48.390625 
Q 23 48.390625 18.546875 47.265625 
Q 14.109375 46.140625 10.015625 43.890625 
L 10.015625 52.203125 
Q 14.9375 54.109375 19.578125 55.046875 
Q 24.21875 56 28.609375 56 
Q 40.484375 56 46.34375 49.84375 
Q 52.203125 43.703125 52.203125 31.203125 
z
" id="DejaVuSans-97"/>
       <path d="M 9.421875 54.6875 
L 18.40625 54.6875 
L 18.40625 0 
L 9.421875 0 
z
M 9.421875 75.984375 
L 18.40625 75.984375 
L 18.40625 64.59375 
L 9.421875 64.59375 
z
" id="DejaVuSans-105"/>
       <path d="M 18.3125 70.21875 
L 18.3125 54.6875 
L 36.8125 54.6875 
L 36.8125 47.703125 
L 18.3125 47.703125 
L 18.3125 18.015625 
Q 18.3125 11.328125 20.140625 9.421875 
Q 21.96875 7.515625 27.59375 7.515625 
L 36.8125 7.515625 
L 36.8125 0 
L 27.59375 0 
Q 17.1875 0 13.234375 3.875 
Q 9.28125 7.765625 9.28125 18.015625 
L 9.28125 47.703125 
L 2.6875 47.703125 
L 2.6875 54.6875 
L 9.28125 54.6875 
L 9.28125 70.21875 
z
" id="DejaVuSans-116"/>
      </defs>
      <use xlink:href="#DejaVuSans-103"/>
      <use x="63.476562" xlink:href="#DejaVuSans-100"/>
      <use x="126.953125" xlink:href="#DejaVuSans-112"/>
      <use x="190.429688" xlink:href="#DejaVuSans-95"/>
      <use x="240.429688" xlink:href="#DejaVuSans-112"/>
      <use x="303.90625" xlink:href="#DejaVuSans-101"/>
      <use x="365.429688" xlink:href="#DejaVuSans-114"/>
      <use x="406.542969" xlink:href="#DejaVuSans-95"/>
      <use x="456.542969" xlink:href="#DejaVuSans-99"/>
      <use x="511.523438" xlink:href="#DejaVuSans-97"/>
      <use x="572.802734" xlink:href="#DejaVuSans-112"/>
      <use x="636.279297" xlink:href="#DejaVuSans-105"/>
      <use x="664.0625" xlink:href="#DejaVuSans-116"/>
      <use x="703.271484" xlink:href="#DejaVuSans-97"/>
     </g>
    </g>
   </g>
   <g id="matplotlib.axis_2">
    <g id="ytick_1">
     <g id="line2d_8">
      <defs>
       <path d="M 0 0 
L -3.5 0 
" id="mdc81b473bc" style="stroke:#000000;stroke-width:0.8;"/>
      </defs>
      <g>
       <use style="stroke:#000000;stroke-width:0.8;" x="54" xlink:href="#mdc81b473bc" y="233.533031"/>
      </g>
     </g>
     <g id="text_9">
      <!-- 40 -->
      <g transform="translate(34.275 237.33225)scale(0.1 -0.1)">
       <use xlink:href="#DejaVuSans-52"/>
       <use x="63.623047" xlink:href="#DejaVuSans-48"/>
      </g>
     </g>
    </g>
    <g id="ytick_2">
     <g id="line2d_9">
      <g>
       <use style="stroke:#000000;stroke-width:0.8;" x="54" xlink:href="#mdc81b473bc" y="187.804036"/>
      </g>
     </g>
     <g id="text_10">
      <!-- 50 -->
      <g transform="translate(34.275 191.603255)scale(0.1 -0.1)">
       <use xlink:href="#DejaVuSans-53"/>
       <use x="63.623047" xlink:href="#DejaVuSans-48"/>
      </g>
     </g>
    </g>
    <g id="ytick_3">
     <g id="line2d_10">
      <g>
       <use style="stroke:#000000;stroke-width:0.8;" x="54" xlink:href="#mdc81b473bc" y="142.075041"/>
      </g>
     </g>
     <g id="text_11">
      <!-- 60 -->
      <g transform="translate(34.275 145.87426)scale(0.1 -0.1)">
       <use xlink:href="#DejaVuSans-54"/>
       <use x="63.623047" xlink:href="#DejaVuSans-48"/>
      </g>
     </g>
    </g>
    <g id="ytick_4">
     <g id="line2d_11">
      <g>
       <use style="stroke:#000000;stroke-width:0.8;" x="54" xlink:href="#mdc81b473bc" y="96.346046"/>
      </g>
     </g>
     <g id="text_12">
      <!-- 70 -->
      <g transform="translate(34.275 100.145265)scale(0.1 -0.1)">
       <defs>
        <path d="M 8.203125 72.90625 
L 55.078125 72.90625 
L 55.078125 68.703125 
L 28.609375 0 
L 18.3125 0 
L 43.21875 64.59375 
L 8.203125 64.59375 
z
" id="DejaVuSans-55"/>
       </defs>
       <use xlink:href="#DejaVuSans-55"/>
       <use x="63.623047" xlink:href="#DejaVuSans-48"/>
      </g>
     </g>
    </g>
    <g id="ytick_5">
     <g id="line2d_12">
      <g>
       <use style="stroke:#000000;stroke-width:0.8;" x="54" xlink:href="#mdc81b473bc" y="50.617051"/>
      </g>
     </g>
     <g id="text_13">
      <!-- 80 -->
      <g transform="translate(34.275 54.416269)scale(0.1 -0.1)">
       <defs>
        <path d="M 31.78125 34.625 
Q 24.75 34.625 20.71875 30.859375 
Q 16.703125 27.09375 16.703125 20.515625 
Q 16.703125 13.921875 20.71875 10.15625 
Q 24.75 6.390625 31.78125 6.390625 
Q 38.8125 6.390625 42.859375 10.171875 
Q 46.921875 13.96875 46.921875 20.515625 
Q 46.921875 27.09375 42.890625 30.859375 
Q 38.875 34.625 31.78125 34.625 
z
M 21.921875 38.8125 
Q 15.578125 40.375 12.03125 44.71875 
Q 8.5 49.078125 8.5 55.328125 
Q 8.5 64.0625 14.71875 69.140625 
Q 20.953125 74.21875 31.78125 74.21875 
Q 42.671875 74.21875 48.875 69.140625 
Q 55.078125 64.0625 55.078125 55.328125 
Q 55.078125 49.078125 51.53125 44.71875 
Q 48 40.375 41.703125 38.8125 
Q 48.828125 37.15625 52.796875 32.3125 
Q 56.78125 27.484375 56.78125 20.515625 
Q 56.78125 9.90625 50.3125 4.234375 
Q 43.84375 -1.421875 31.78125 -1.421875 
Q 19.734375 -1.421875 13.25 4.234375 
Q 6.78125 9.90625 6.78125 20.515625 
Q 6.78125 27.484375 10.78125 32.3125 
Q 14.796875 37.15625 21.921875 38.8125 
z
M 18.3125 54.390625 
Q 18.3125 48.734375 21.84375 45.5625 
Q 25.390625 42.390625 31.78125 42.390625 
Q 38.140625 42.390625 41.71875 45.5625 
Q 45.3125 48.734375 45.3125 54.390625 
Q 45.3125 60.0625 41.71875 63.234375 
Q 38.140625 66.40625 31.78125 66.40625 
Q 25.390625 66.40625 21.84375 63.234375 
Q 18.3125 60.0625 18.3125 54.390625 
z
" id="DejaVuSans-56"/>
       </defs>
       <use xlink:href="#DejaVuSans-56"/>
       <use x="63.623047" xlink:href="#DejaVuSans-48"/>
      </g>
     </g>
    </g>
    <g id="text_14">
     <!-- life_expectancy -->
     <g transform="translate(27.917187 182.244844)rotate(-90)scale(0.1 -0.1)">
      <defs>
       <path d="M 9.421875 75.984375 
L 18.40625 75.984375 
L 18.40625 0 
L 9.421875 0 
z
" id="DejaVuSans-108"/>
       <path d="M 37.109375 75.984375 
L 37.109375 68.5 
L 28.515625 68.5 
Q 23.6875 68.5 21.796875 66.546875 
Q 19.921875 64.59375 19.921875 59.515625 
L 19.921875 54.6875 
L 34.71875 54.6875 
L 34.71875 47.703125 
L 19.921875 47.703125 
L 19.921875 0 
L 10.890625 0 
L 10.890625 47.703125 
L 2.296875 47.703125 
L 2.296875 54.6875 
L 10.890625 54.6875 
L 10.890625 58.5 
Q 10.890625 67.625 15.140625 71.796875 
Q 19.390625 75.984375 28.609375 75.984375 
z
" id="DejaVuSans-102"/>
       <path d="M 54.890625 54.6875 
L 35.109375 28.078125 
L 55.90625 0 
L 45.3125 0 
L 29.390625 21.484375 
L 13.484375 0 
L 2.875 0 
L 24.125 28.609375 
L 4.6875 54.6875 
L 15.28125 54.6875 
L 29.78125 35.203125 
L 44.28125 54.6875 
z
" id="DejaVuSans-120"/>
       <path d="M 54.890625 33.015625 
L 54.890625 0 
L 45.90625 0 
L 45.90625 32.71875 
Q 45.90625 40.484375 42.875 44.328125 
Q 39.84375 48.1875 33.796875 48.1875 
Q 26.515625 48.1875 22.3125 43.546875 
Q 18.109375 38.921875 18.109375 30.90625 
L 18.109375 0 
L 9.078125 0 
L 9.078125 54.6875 
L 18.109375 54.6875 
L 18.109375 46.1875 
Q 21.34375 51.125 25.703125 53.5625 
Q 30.078125 56 35.796875 56 
Q 45.21875 56 50.046875 50.171875 
Q 54.890625 44.34375 54.890625 33.015625 
z
" id="DejaVuSans-110"/>
       <path d="M 32.171875 -5.078125 
Q 28.375 -14.84375 24.75 -17.8125 
Q 21.140625 -20.796875 15.09375 -20.796875 
L 7.90625 -20.796875 
L 7.90625 -13.28125 
L 13.1875 -13.28125 
Q 16.890625 -13.28125 18.9375 -11.515625 
Q 21 -9.765625 23.484375 -3.21875 
L 25.09375 0.875 
L 2.984375 54.6875 
L 12.5 54.6875 
L 29.59375 11.921875 
L 46.6875 54.6875 
L 56.203125 54.6875 
z
" id="DejaVuSans-121"/>
      </defs>
      <use xlink:href="#DejaVuSans-108"/>
      <use x="27.783203" xlink:href="#DejaVuSans-105"/>
      <use x="55.566406" xlink:href="#DejaVuSans-102"/>
      <use x="90.771484" xlink:href="#DejaVuSans-101"/>
      <use x="152.294922" xlink:href="#DejaVuSans-95"/>
      <use x="202.294922" xlink:href="#DejaVuSans-101"/>
      <use x="262.068359" xlink:href="#DejaVuSans-120"/>
      <use x="321.248047" xlink:href="#DejaVuSans-112"/>
      <use x="384.724609" xlink:href="#DejaVuSans-101"/>
      <use x="446.248047" xlink:href="#DejaVuSans-99"/>
      <use x="501.228516" xlink:href="#DejaVuSans-116"/>
      <use x="540.4375" xlink:href="#DejaVuSans-97"/>
      <use x="601.716797" xlink:href="#DejaVuSans-110"/>
      <use x="665.095703" xlink:href="#DejaVuSans-99"/>
      <use x="720.076172" xlink:href="#DejaVuSans-121"/>
     </g>
    </g>
   </g>
   <g id="patch_3">
    <path d="M 54 252 
L 54 34.56 
" style="fill:none;stroke:#000000;stroke-linecap:square;stroke-linejoin:miter;stroke-width:0.8;"/>
   </g>
   <g id="patch_4">
    <path d="M 388.8 252 
L 388.8 34.56 
" style="fill:none;stroke:#000000;stroke-linecap:square;stroke-linejoin:miter;stroke-width:0.8;"/>
   </g>
   <g id="patch_5">
    <path d="M 54 252 
L 388.8 252 
" style="fill:none;stroke:#000000;stroke-linecap:square;stroke-linejoin:miter;stroke-width:0.8;"/>
   </g>
   <g id="patch_6">
    <path d="M 54 34.56 
L 388.8 34.56 
" style="fill:none;stroke:#000000;stroke-linecap:square;stroke-linejoin:miter;stroke-width:0.8;"/>
   </g>
   <g id="text_15">
    <!-- Lebenserwartung und Wohlstand -->
    <g transform="translate(122.35125 28.56)scale(0.12 -0.12)">
     <defs>
      <path d="M 9.8125 72.90625 
L 19.671875 72.90625 
L 19.671875 8.296875 
L 55.171875 8.296875 
L 55.171875 0 
L 9.8125 0 
z
" id="DejaVuSans-76"/>
      <path d="M 48.6875 27.296875 
Q 48.6875 37.203125 44.609375 42.84375 
Q 40.53125 48.484375 33.40625 48.484375 
Q 26.265625 48.484375 22.1875 42.84375 
Q 18.109375 37.203125 18.109375 27.296875 
Q 18.109375 17.390625 22.1875 11.75 
Q 26.265625 6.109375 33.40625 6.109375 
Q 40.53125 6.109375 44.609375 11.75 
Q 48.6875 17.390625 48.6875 27.296875 
z
M 18.109375 46.390625 
Q 20.953125 51.265625 25.265625 53.625 
Q 29.59375 56 35.59375 56 
Q 45.5625 56 51.78125 48.09375 
Q 58.015625 40.1875 58.015625 27.296875 
Q 58.015625 14.40625 51.78125 6.484375 
Q 45.5625 -1.421875 35.59375 -1.421875 
Q 29.59375 -1.421875 25.265625 0.953125 
Q 20.953125 3.328125 18.109375 8.203125 
L 18.109375 0 
L 9.078125 0 
L 9.078125 75.984375 
L 18.109375 75.984375 
z
" id="DejaVuSans-98"/>
      <path d="M 44.28125 53.078125 
L 44.28125 44.578125 
Q 40.484375 46.53125 36.375 47.5 
Q 32.28125 48.484375 27.875 48.484375 
Q 21.1875 48.484375 17.84375 46.4375 
Q 14.5 44.390625 14.5 40.28125 
Q 14.5 37.15625 16.890625 35.375 
Q 19.28125 33.59375 26.515625 31.984375 
L 29.59375 31.296875 
Q 39.15625 29.25 43.1875 25.515625 
Q 47.21875 21.78125 47.21875 15.09375 
Q 47.21875 7.46875 41.1875 3.015625 
Q 35.15625 -1.421875 24.609375 -1.421875 
Q 20.21875 -1.421875 15.453125 -0.5625 
Q 10.6875 0.296875 5.421875 2 
L 5.421875 11.28125 
Q 10.40625 8.6875 15.234375 7.390625 
Q 20.0625 6.109375 24.8125 6.109375 
Q 31.15625 6.109375 34.5625 8.28125 
Q 37.984375 10.453125 37.984375 14.40625 
Q 37.984375 18.0625 35.515625 20.015625 
Q 33.0625 21.96875 24.703125 23.78125 
L 21.578125 24.515625 
Q 13.234375 26.265625 9.515625 29.90625 
Q 5.8125 33.546875 5.8125 39.890625 
Q 5.8125 47.609375 11.28125 51.796875 
Q 16.75 56 26.8125 56 
Q 31.78125 56 36.171875 55.265625 
Q 40.578125 54.546875 44.28125 53.078125 
z
" id="DejaVuSans-115"/>
      <path d="M 4.203125 54.6875 
L 13.1875 54.6875 
L 24.421875 12.015625 
L 35.59375 54.6875 
L 46.1875 54.6875 
L 57.421875 12.015625 
L 68.609375 54.6875 
L 77.59375 54.6875 
L 63.28125 0 
L 52.6875 0 
L 40.921875 44.828125 
L 29.109375 0 
L 18.5 0 
z
" id="DejaVuSans-119"/>
      <path d="M 8.5 21.578125 
L 8.5 54.6875 
L 17.484375 54.6875 
L 17.484375 21.921875 
Q 17.484375 14.15625 20.5 10.265625 
Q 23.53125 6.390625 29.59375 6.390625 
Q 36.859375 6.390625 41.078125 11.03125 
Q 45.3125 15.671875 45.3125 23.6875 
L 45.3125 54.6875 
L 54.296875 54.6875 
L 54.296875 0 
L 45.3125 0 
L 45.3125 8.40625 
Q 42.046875 3.421875 37.71875 1 
Q 33.40625 -1.421875 27.6875 -1.421875 
Q 18.265625 -1.421875 13.375 4.4375 
Q 8.5 10.296875 8.5 21.578125 
z
M 31.109375 56 
z
" id="DejaVuSans-117"/>
      <path id="DejaVuSans-32"/>
      <path d="M 3.328125 72.90625 
L 13.28125 72.90625 
L 28.609375 11.28125 
L 43.890625 72.90625 
L 54.984375 72.90625 
L 70.3125 11.28125 
L 85.59375 72.90625 
L 95.609375 72.90625 
L 77.296875 0 
L 64.890625 0 
L 49.515625 63.28125 
L 33.984375 0 
L 21.578125 0 
z
" id="DejaVuSans-87"/>
      <path d="M 30.609375 48.390625 
Q 23.390625 48.390625 19.1875 42.75 
Q 14.984375 37.109375 14.984375 27.296875 
Q 14.984375 17.484375 19.15625 11.84375 
Q 23.34375 6.203125 30.609375 6.203125 
Q 37.796875 6.203125 41.984375 11.859375 
Q 46.1875 17.53125 46.1875 27.296875 
Q 46.1875 37.015625 41.984375 42.703125 
Q 37.796875 48.390625 30.609375 48.390625 
z
M 30.609375 56 
Q 42.328125 56 49.015625 48.375 
Q 55.71875 40.765625 55.71875 27.296875 
Q 55.71875 13.875 49.015625 6.21875 
Q 42.328125 -1.421875 30.609375 -1.421875 
Q 18.84375 -1.421875 12.171875 6.21875 
Q 5.515625 13.875 5.515625 27.296875 
Q 5.515625 40.765625 12.171875 48.375 
Q 18.84375 56 30.609375 56 
z
" id="DejaVuSans-111"/>
      <path d="M 54.890625 33.015625 
L 54.890625 0 
L 45.90625 0 
L 45.90625 32.71875 
Q 45.90625 40.484375 42.875 44.328125 
Q 39.84375 48.1875 33.796875 48.1875 
Q 26.515625 48.1875 22.3125 43.546875 
Q 18.109375 38.921875 18.109375 30.90625 
L 18.109375 0 
L 9.078125 0 
L 9.078125 75.984375 
L 18.109375 75.984375 
L 18.109375 46.1875 
Q 21.34375 51.125 25.703125 53.5625 
Q 30.078125 56 35.796875 56 
Q 45.21875 56 50.046875 50.171875 
Q 54.890625 44.34375 54.890625 33.015625 
z
" id="DejaVuSans-104"/>
     </defs>
     <use xlink:href="#DejaVuSans-76"/>
     <use x="53.962891" xlink:href="#DejaVuSans-101"/>
     <use x="115.486328" xlink:href="#DejaVuSans-98"/>
     <use x="178.962891" xlink:href="#DejaVuSans-101"/>
     <use x="240.486328" xlink:href="#DejaVuSans-110"/>
     <use x="303.865234" xlink:href="#DejaVuSans-115"/>
     <use x="355.964844" xlink:href="#DejaVuSans-101"/>
     <use x="417.488281" xlink:href="#DejaVuSans-114"/>
     <use x="458.601562" xlink:href="#DejaVuSans-119"/>
     <use x="540.388672" xlink:href="#DejaVuSans-97"/>
     <use x="601.667969" xlink:href="#DejaVuSans-114"/>
     <use x="642.78125" xlink:href="#DejaVuSans-116"/>
     <use x="681.990234" xlink:href="#DejaVuSans-117"/>
     <use x="745.369141" xlink:href="#DejaVuSans-110"/>
     <use x="808.748047" xlink:href="#DejaVuSans-103"/>
     <use x="872.224609" xlink:href="#DejaVuSans-32"/>
     <use x="904.011719" xlink:href="#DejaVuSans-117"/>
     <use x="967.390625" xlink:href="#DejaVuSans-110"/>
     <use x="1030.769531" xlink:href="#DejaVuSans-100"/>
     <use x="1094.246094" xlink:href="#DejaVuSans-32"/>
     <use x="1126.033203" xlink:href="#DejaVuSans-87"/>
     <use x="1219.035156" xlink:href="#DejaVuSans-111"/>
     <use x="1280.216797" xlink:href="#DejaVuSans-104"/>
     <use x="1343.595703" xlink:href="#DejaVuSans-108"/>
     <use x="1371.378906" xlink:href="#DejaVuSans-115"/>
     <use x="1423.478516" xlink:href="#DejaVuSans-116"/>
     <use x="1462.6875" xlink:href="#DejaVuSans-97"/>
     <use x="1523.966797" xlink:href="#DejaVuSans-110"/>
     <use x="1587.345703" xlink:href="#DejaVuSans-100"/>
    </g>
   </g>
  </g>
 </g>
 <defs>
  <clipPath id="p3358a4d3f0">
   <rect height="217.44" width="334.8" x="54" y="34.56"/>
  </clipPath>
 </defs>
</svg>
